<svg width="17" height="17" viewBox="0 0 17 17" fill="none" xmlns="http://www.w3.org/2000/svg">
<g id="magic wand">
<path id="Vector" d="M5.45884 4.31619C5.43988 4.5416 5.11188 4.59859 5.00639 4.39481L4.43831 3.29767C4.40157 3.22658 4.32672 3.17907 4.24206 3.17292L2.93481 3.07809C2.69197 3.06049 2.63058 2.75601 2.85013 2.65807L4.03193 2.13074C4.10846 2.09658 4.15974 2.02715 4.16629 1.94854L4.26846 0.73494C4.28742 0.509529 4.61542 0.452535 4.72091 0.656321L5.28899 1.75346C5.32573 1.82455 5.40049 1.87207 5.48524 1.87821L6.79249 1.97303C7.03533 1.99064 7.09672 2.29511 6.87717 2.39306L5.69537 2.92039C5.61875 2.95457 5.56756 3.02397 5.56101 3.10259L5.45884 4.31619Z" fill="white"/>
<path id="Vector_2" d="M1.70599 5.1442C1.67434 5.25336 1.50749 5.25336 1.47584 5.1442L1.30537 4.55649C1.29436 4.51841 1.26227 4.48867 1.22128 4.47842L0.588209 4.32018C0.470605 4.29079 0.470605 4.13591 0.588209 4.10652L1.22128 3.94828C1.26227 3.93802 1.29436 3.90828 1.30537 3.87021L1.47584 3.28249C1.50749 3.17333 1.67434 3.17333 1.70599 3.28249L1.87646 3.87021C1.88747 3.90828 1.91951 3.93802 1.96055 3.94828L2.59362 4.10652C2.71122 4.13591 2.71122 4.29079 2.59362 4.32018L1.96055 4.47842C1.91951 4.48867 1.88747 4.51841 1.87646 4.55649L1.70599 5.1442Z" fill="white"/>
<path id="Vector_3" d="M3.88782 8.51993C3.85616 8.6291 3.68931 8.6291 3.65766 8.51993L3.48719 7.93222C3.47618 7.89414 3.4441 7.8644 3.4031 7.85415L2.77003 7.69591C2.65243 7.66652 2.65243 7.51164 2.77003 7.48225L3.4031 7.32401C3.4441 7.31375 3.47618 7.28402 3.48719 7.24594L3.65766 6.65822C3.68931 6.54906 3.85616 6.54906 3.88782 6.65822L4.05829 7.24594C4.0693 7.28402 4.10133 7.31375 4.14238 7.32401L4.77544 7.48225C4.89305 7.51164 4.89305 7.66652 4.77544 7.69591L4.14238 7.85415C4.10133 7.8644 4.0693 7.89414 4.05829 7.93222L3.88782 8.51993Z" fill="white"/>
<path id="Vector_4" d="M2.03127 7.19688C2.01017 7.26966 1.89894 7.26966 1.87783 7.19688L1.76419 6.80507C1.75684 6.77969 1.73546 6.75986 1.70813 6.75303L1.28608 6.64753C1.20768 6.62794 1.20768 6.52469 1.28608 6.50509L1.70813 6.3996C1.73546 6.39276 1.75684 6.37294 1.76419 6.34755L1.87783 5.95574C1.89894 5.88297 2.01017 5.88297 2.03127 5.95574L2.14492 6.34755C2.15226 6.37294 2.17361 6.39276 2.20098 6.3996L2.62302 6.50509C2.70142 6.52469 2.70142 6.62794 2.62302 6.64753L2.20098 6.75303C2.17361 6.75986 2.15226 6.77969 2.14492 6.80507L2.03127 7.19688Z" fill="white"/>
<path id="Vector_5" d="M7.12218 5.84654C7.10108 5.91932 6.98985 5.91932 6.96874 5.84654L6.8551 5.45473C6.84776 5.42935 6.82637 5.40952 6.79904 5.40268L6.37699 5.29719C6.29859 5.2776 6.29859 5.17434 6.37699 5.15475L6.79904 5.04926C6.82637 5.04242 6.84776 5.0226 6.8551 4.99721L6.96874 4.6054C6.98985 4.53263 7.10108 4.53263 7.12218 4.6054L7.23583 4.99721C7.24317 5.0226 7.26453 5.04242 7.29189 5.04926L7.71393 5.15475C7.79234 5.17434 7.79234 5.2776 7.71393 5.29719L7.29189 5.40268C7.26453 5.40952 7.24317 5.42935 7.23583 5.45473L7.12218 5.84654Z" fill="white"/>
<path id="Vector 1" d="M14.3182 14.0032L13.5909 14.6783M4.15777 5.0424L15.9624 15.0878C16.2555 15.3372 16.2654 15.7631 15.9843 16.024V16.024C15.7043 16.284 15.2496 16.2779 14.9805 16.0081C10.9047 11.9232 3.72842 4.70759 4.15777 5.0424Z" stroke="white"/>
</g>
</svg>
